<?xml version="1.0" encoding="utf-8"?>
<!-- Generator: Adobe Illustrator 13.0.0, SVG Export Plug-In . SVG Version: 6.00 Build 14948)  -->
<!DOCTYPE svg PUBLIC "-//W3C//DTD SVG 1.1//EN" "http://www.w3.org/Graphics/SVG/1.1/DTD/svg11.dtd">
<svg version="1.1" id="Calque_1" xmlns="http://www.w3.org/2000/svg" xmlns:xlink="http://www.w3.org/1999/xlink" x="0px" y="0px"
	 width="200px" height="130.5px" viewBox="0 0 200 130.5" enable-background="new 0 0 200 130.5" xml:space="preserve">
<path fill="none" stroke="#3F3F3F" stroke-width="2" stroke-linecap="round" d="M100.885,68.224
	c-0.016,3.344-2.738,6.043-6.082,6.027s-6.043-2.738-6.028-6.084"/>
<ellipse transform="matrix(1 0.0048 -0.0048 1 0.3153 -0.3009)" fill="#E07C86" cx="63.39" cy="66.087" rx="6.156" ry="6.731"/>
<ellipse transform="matrix(1 0.0048 -0.0048 1 0.316 -0.6032)" fill="#E07C86" cx="126.89" cy="66.087" rx="6.155" ry="6.731"/>
<circle fill="#3F3F3F" cx="118.987" cy="61.308" r="4.555"/>
<circle fill="#FFFFFF" stroke="#3F3F3F" cx="71.613" cy="61.089" r="8.266"/>
<path fill="none" stroke="#3F3F3F" stroke-width="2" stroke-linecap="round" d="M141.177,31.269
	c-9.899-14.917-26.813-24.788-46.061-24.876C69.671,6.274,48.157,23.289,41.469,46.599C21.31,52.053,7.083,65.174,7.012,80.564
	c-0.095,20.396,24.702,37.047,55.384,37.189c6.49,0.029,12.718-0.688,18.515-2.021c4.377,1.132,8.963,1.748,13.691,1.77
	c6.384,0.029,12.515-1.032,18.232-2.987c7.593,3.129,16.199,4.926,25.337,4.968c30.741,0.141,55.754-19.506,55.867-43.881
	C194.149,51.915,170.708,32.482,141.177,31.269z"/>
<circle fill="#3F3F3F" cx="71.613" cy="61.089" r="6.17"/>
<circle fill="#FFFFFF" stroke="#3F3F3F" cx="119.363" cy="61.089" r="8.266"/>
<circle fill="#3F3F3F" cx="119.363" cy="61.089" r="6.17"/>
</svg>
