<?xml version="1.0" encoding="utf-8"?>
<!-- Generator: Adobe Illustrator 13.0.0, SVG Export Plug-In . SVG Version: 6.00 Build 14948)  -->
<!DOCTYPE svg PUBLIC "-//W3C//DTD SVG 1.1//EN" "http://www.w3.org/Graphics/SVG/1.1/DTD/svg11.dtd">
<svg version="1.1" id="Calque_1" xmlns="http://www.w3.org/2000/svg" xmlns:xlink="http://www.w3.org/1999/xlink" x="0px" y="0px"
	 width="320px" height="339px" viewBox="0 0 320 339" enable-background="new 0 0 320 339" xml:space="preserve">
<path fill="#1F6BFF" d="M75.167,109.667c0,0,127-66,196.5-90c35.919-12.403,97,64.5,125,64.5s14.684,16.319,41.503,33.5
	c37.05,23.734,7.405,63,16.405,63s1,90,1,90l-322.408,20L75.167,109.667z"/>
<path fill="#1F54FF" d="M-154.5,138c0,0,80-56,80-94s116,60,144,60s88,69,132,69s187,36,196,36s1,90,1,90l-495,20L-154.5,138z"/>
</svg>
