<?xml version="1.0" encoding="utf-8"?>
<!-- Generator: Adobe Illustrator 13.0.0, SVG Export Plug-In . SVG Version: 6.00 Build 14948)  -->
<!DOCTYPE svg PUBLIC "-//W3C//DTD SVG 1.1//EN" "http://www.w3.org/Graphics/SVG/1.1/DTD/svg11.dtd">
<svg version="1.1" id="Calque_1" xmlns="http://www.w3.org/2000/svg" xmlns:xlink="http://www.w3.org/1999/xlink" x="0px" y="0px"
	 width="200px" height="130.5px" viewBox="0 0 200 130.5" enable-background="new 0 0 200 130.5" xml:space="preserve">
<circle fill="#3F3F3F" cx="118.986" cy="61.308" r="4.555"/>
<circle fill="#FFFFFF" stroke="#3F3F3F" cx="71.613" cy="61.089" r="8.266"/>
<path fill="none" stroke="#3F3F3F" stroke-width="2" stroke-linecap="round" d="M141.178,31.269
	c-9.9-14.917-26.814-24.788-46.062-24.876C69.671,6.274,48.157,23.289,41.469,46.599C21.31,52.053,7.083,65.174,7.012,80.564
	c-0.095,20.396,24.702,37.047,55.384,37.188c6.49,0.029,12.718-0.688,18.515-2.021c4.377,1.132,8.963,1.748,13.691,1.77
	c6.384,0.029,12.515-1.031,18.232-2.986c7.594,3.129,16.199,4.926,25.337,4.967c30.741,0.142,55.754-19.506,55.867-43.881
	C194.148,51.915,170.708,32.482,141.178,31.269z"/>
<circle fill="#3F3F3F" cx="71.613" cy="61.089" r="6.17"/>
<circle fill="#FFFFFF" stroke="#3F3F3F" cx="119.363" cy="61.089" r="8.266"/>
<circle fill="#3F3F3F" cx="119.363" cy="61.089" r="6.17"/>
<path fill="none" stroke="#3F3F3F" stroke-width="2" stroke-linecap="round" d="M100.968,75.481
	c0.011-2.509-2.689-4.557-6.033-4.572c-3.344-0.015-6.065,2.007-6.077,4.517"/>
<ellipse transform="matrix(1 0.0047 -0.0047 1 0.3278 -0.2965)" fill="#E07C86" cx="63.521" cy="69.898" rx="6.155" ry="4.898"/>
<ellipse transform="matrix(1 0.0048 -0.0048 1 0.3345 -0.6038)" fill="#E07C86" cx="127.021" cy="69.978" rx="6.155" ry="4.898"/>
<ellipse transform="matrix(1 0.0048 -0.0048 1 0.2965 -0.5719)" fill="#FFFFFF" stroke="#3F3F3F" cx="119.993" cy="61.858" rx="5.423" ry="3.988"/>
<ellipse transform="matrix(1 0.0046 -0.0046 1 0.2856 -0.3268)" fill="#FFFFFF" stroke="#3F3F3F" cx="70.62" cy="61.436" rx="5.687" ry="4.182"/>
<g>
	<g>
		<path fill="none" stroke="#3F3F3F" stroke-width="2" stroke-linecap="round" d="M141.317,31.248
			C131.418,16.33,114.504,6.459,95.256,6.37C69.811,6.253,48.297,23.267,41.609,46.577C21.45,52.032,7.223,65.152,7.151,80.543
			c-0.094,20.396,24.702,37.047,55.385,37.189c6.49,0.029,12.718-0.688,18.515-2.021c4.377,1.132,8.963,1.748,13.691,1.77
			c6.383,0.029,12.514-1.033,18.231-2.988c7.594,3.129,16.2,4.927,25.338,4.969c30.741,0.141,55.754-19.506,55.867-43.881
			C194.289,51.894,170.848,32.461,141.317,31.248z"/>
	</g>
</g>
<rect x="66.01" y="64.128" fill="#C5FBFF" width="9.991" height="95.591"/>
<rect x="114.677" y="64.128" fill="#C5FBFF" width="9.991" height="95.591"/>
</svg>
